# xmcd CD database file
#
# Track frame offsets:
#	150
#	34140
#	51810
#	59195
#	77385
#	151314
#	176033
#	213569
#	243870
#	280725
#	305460
#	325802
#
# Disc length: 4696 seconds
#
# Revision: 1
# Processed by: cddbd v1.5.1PL0 Copyright (c) Steve Scherf et al.
# Submitted via: CDex 1.51
#
DISCID=a312560c
DTITLE=Jazz Live in Samois - Tribute to Django Reinhardt 1988-1999 CD1
DYEAR=2003
DGENRE=Jazz
TTITLE0=Michel Petrucciani Trio - In a Sentimental Mood 
TTITLE1=Stéphane Grappelli Trio - Honeysuckle Rose
TTITLE2=Interview Stéphane Grappelli - 20-06-1988
TTITLE3=Louis Winsberg Trio - TGV
TTITLE4=Hervé Sellin Sextet - Bird Medley
TTITLE5=Challin Ferret - Night and Day
TTITLE6=Gilbert Leroux Washboard Group - That's a Plenty
TTITLE7=Saxomania with Phil Woods - Yardbird Suite
TTITLE8=Michele Hendrix and his Trio - Everybody's Boppin'
TTITLE9=Babik Reinhardt Trio - Nuages
TTITLE10=Dorado Quartet - Manoir de mes Rêves
TTITLE11=Christian Escoudé and Bireli Lagrene - Blues at Cavallotti
EXTD=YEAR: 2003
EXTT0=
EXTT1=
EXTT2=
EXTT3=
EXTT4=
EXTT5=
EXTT6=
EXTT7=
EXTT8=
EXTT9=
EXTT10=
EXTT11=
PLAYORDER=
